# Blender 4.0.0
# www.blender.org
mtllib block2.mtl
o block2
v -103.926636 0.171368 -23.860418
v -81.194000 0.171368 -23.860418
v -103.926636 0.171368 -46.593048
v -81.194000 0.171368 -46.593048
v -102.498840 0.651844 -25.288216
v -82.621796 0.651844 -25.288216
v -102.498840 0.651844 -45.165253
v -82.621796 0.651844 -45.165253
v -103.926636 0.651844 -46.593048
v -103.926636 0.651844 -23.860418
v -81.194000 0.651844 -23.860418
v -81.194000 0.651844 -46.593048
v -102.498840 1.046015 -45.165253
v -102.498840 1.046015 -25.288216
v -82.621796 1.046015 -25.288216
v -82.621796 1.046015 -45.165253
v -100.761482 0.171368 -23.860418
v -100.596748 0.171368 -23.860418
v -97.512276 0.171368 -23.860418
v -97.350922 0.171368 -23.860418
v -94.263466 0.171368 -23.860418
v -94.104683 0.171368 -23.860418
v -91.015953 0.171368 -23.860418
v -90.857170 0.171368 -23.860418
v -87.769714 0.171368 -23.860418
v -87.608360 0.171368 -23.860418
v -84.523888 0.171368 -23.860418
v -84.359154 0.171368 -23.860418
v -84.359154 0.171368 -46.593048
v -84.523888 0.171368 -46.593048
v -87.608360 0.171368 -46.593048
v -87.769714 0.171368 -46.593048
v -90.857170 0.171368 -46.593048
v -91.015953 0.171368 -46.593048
v -94.104683 0.171368 -46.593048
v -94.263466 0.171368 -46.593048
v -97.350922 0.171368 -46.593048
v -97.512276 0.171368 -46.593048
v -100.596748 0.171368 -46.593048
v -100.761482 0.171368 -46.593048
v -100.761734 0.651844 -23.860418
v -100.596497 0.651844 -23.860418
v -97.512390 0.651844 -23.860418
v -97.350800 0.651844 -23.860418
v -94.263481 0.651844 -23.860418
v -94.104668 0.651844 -23.860418
v -91.015968 0.651844 -23.860418
v -90.857155 0.651844 -23.860418
v -87.769836 0.651844 -23.860418
v -87.608246 0.651844 -23.860418
v -84.524139 0.651844 -23.860418
v -84.358902 0.651844 -23.860418
v -84.358902 0.651844 -46.593048
v -84.524139 0.651844 -46.593048
v -87.608246 0.651844 -46.593048
v -87.769836 0.651844 -46.593048
v -90.857155 0.651844 -46.593048
v -91.015968 0.651844 -46.593048
v -94.104668 0.651844 -46.593048
v -94.263481 0.651844 -46.593048
v -97.350800 0.651844 -46.593048
v -97.512390 0.651844 -46.593048
v -100.596497 0.651844 -46.593048
v -100.761734 0.651844 -46.593048
v -99.741882 0.651844 -25.288216
v -99.576645 0.651844 -25.288216
v -96.900475 0.651844 -25.288216
v -96.738892 0.651844 -25.288216
v -94.059517 0.651844 -25.288216
v -93.900696 0.651844 -25.288216
v -91.219940 0.651844 -25.288216
v -91.061119 0.651844 -25.288216
v -88.381744 0.651844 -25.288216
v -88.220161 0.651844 -25.288216
v -85.543991 0.651844 -25.288216
v -85.378754 0.651844 -25.288216
v -85.378754 0.651844 -45.165253
v -85.543991 0.651844 -45.165253
v -88.220161 0.651844 -45.165253
v -88.381744 0.651844 -45.165253
v -91.061119 0.651844 -45.165253
v -91.219940 0.651844 -45.165253
v -93.900696 0.651844 -45.165253
v -94.059517 0.651844 -45.165253
v -96.738892 0.651844 -45.165253
v -96.900475 0.651844 -45.165253
v -99.576645 0.651844 -45.165253
v -99.741882 0.651844 -45.165253
v -99.576897 1.046015 -25.288216
v -99.741623 1.046015 -25.288216
v -96.739006 1.046015 -25.288216
v -96.900360 1.046015 -25.288216
v -93.900711 1.046015 -25.288216
v -94.059502 1.046015 -25.288216
v -91.061134 1.046015 -25.288216
v -91.219925 1.046015 -25.288216
v -88.220276 1.046015 -25.288216
v -88.381630 1.046015 -25.288216
v -85.379013 1.046015 -25.288216
v -85.543739 1.046015 -25.288216
v -85.543739 1.046015 -45.165253
v -85.379013 1.046015 -45.165253
v -88.381630 1.046015 -45.165253
v -88.220276 1.046015 -45.165253
v -91.219925 1.046015 -45.165253
v -91.061134 1.046015 -45.165253
v -94.059502 1.046015 -45.165253
v -93.900711 1.046015 -45.165253
v -96.900360 1.046015 -45.165253
v -96.739006 1.046015 -45.165253
v -99.741623 1.046015 -45.165253
v -99.576897 1.046015 -45.165253
vn -0.0000 -0.0000 -1.0000
vn 1.0000 -0.0000 -0.0000
vn -1.0000 -0.0000 -0.0000
vn -0.0000 1.0000 -0.0000
vn -0.0000 -1.0000 -0.0000
vn -0.0000 -0.0000 1.0000
vt 1.000000 1.000000
vt 0.860766 1.000000
vt 0.860777 1.000000
vt 0.937192 0.062808
vt 0.937192 0.937192
vt 0.000000 1.000000
vt 0.000000 0.000000
vt 0.184086 0.062808
vt 0.062808 0.062808
vt 0.139223 0.000000
vt 0.860766 0.000000
vt 0.860766 1.000000
vt 1.000000 0.000000
vt 0.062808 0.937192
vt 0.309078 0.062808
vt 0.191355 0.062808
vt 0.146491 0.000000
vt 0.282160 0.000000
vt 0.690922 0.937192
vt 0.808645 0.937192
vt 0.853509 1.000000
vt 0.717840 1.000000
vt 0.184097 0.062808
vt 0.184097 0.937192
vt 0.815914 0.937192
vt 0.815903 0.937192
vt 0.309083 0.062808
vt 0.191343 0.062808
vt 0.316186 0.062808
vt 0.434051 0.062808
vt 0.434052 0.062808
vt 0.316181 0.062808
vt 0.441037 0.062808
vt 0.558963 0.062808
vt 0.558963 0.062808
vt 0.441036 0.062808
vt 0.565949 0.062808
vt 0.683814 0.062808
vt 0.683819 0.062808
vt 0.565948 0.062808
vt 0.690922 0.062808
vt 0.808645 0.062808
vt 0.808657 0.062808
vt 0.690917 0.062808
vt 0.815914 0.062808
vt 0.815903 0.062808
vt 0.690917 0.937192
vt 0.808657 0.937192
vt 0.683814 0.937192
vt 0.565949 0.937192
vt 0.565948 0.937192
vt 0.683819 0.937192
vt 0.558963 0.937192
vt 0.441037 0.937192
vt 0.441036 0.937192
vt 0.558963 0.937192
vt 0.434051 0.937192
vt 0.316186 0.937192
vt 0.316181 0.937192
vt 0.434052 0.937192
vt 0.309078 0.937192
vt 0.191354 0.937192
vt 0.191343 0.937192
vt 0.309083 0.937192
vt 0.184086 0.937192
vt 0.309083 0.062808
vt 0.309083 0.937192
vt 0.434052 0.937192
vt 0.316181 0.937192
vt 0.565948 0.062808
vt 0.683819 0.062808
vt 0.683819 0.937192
vt 0.565948 0.937192
vt 0.690917 0.062808
vt 0.690917 0.937192
vt 0.139223 1.000000
vt 0.282160 1.000000
vt 0.146491 1.000000
vt 0.434051 0.937192
vt 0.425078 1.000000
vt 0.289268 1.000000
vt 0.567936 1.000000
vt 0.432065 1.000000
vt 0.565949 0.937192
vt 0.710732 1.000000
vt 0.574922 1.000000
vt 0.860777 0.000000
vt 0.717840 0.000000
vt 0.853509 0.000000
vt 0.565949 0.062808
vt 0.574922 0.000000
vt 0.710732 0.000000
vt 0.432065 0.000000
vt 0.567935 0.000000
vt 0.289268 0.000000
vt 0.425078 0.000000
vt 0.146480 0.000000
vt 0.146480 1.000000
vt 0.282165 1.000000
vt 0.282165 0.000000
vt 0.139234 0.000000
vt 0.432064 0.000000
vt 0.432064 1.000000
vt 0.567936 1.000000
vt 0.567936 0.000000
vt 0.574921 0.000000
vt 0.574921 1.000000
vt 0.710737 1.000000
vt 0.710737 0.000000
vt 0.717835 0.000000
vt 0.717835 1.000000
vt 0.853520 1.000000
vt 0.853520 0.000000
vt 0.860766 0.000000
vt 0.567936 1.000000
vt 0.432064 1.000000
vt 0.432065 1.000000
vt 0.567935 1.000000
vt 0.425079 1.000000
vt 0.289263 1.000000
vt 0.425078 1.000000
vt 0.282165 1.000000
vt 0.146480 1.000000
vt 0.139234 1.000000
vt 0.146480 0.000000
vt 0.282165 0.000000
vt 0.289263 0.000000
vt 0.425079 0.000000
vt 0.425078 0.000000
vt 0.432064 0.000000
vt 0.567936 0.000000
vt 0.567936 0.000000
vt 0.432065 0.000000
s 0
usemtl blocks
f 6/4/2 8/5/2 16/5/2 15/4/2
f 7/14/3 5/9/3 14/9/3 13/14/3
f 14/9/4 90/23/4 111/24/4 13/14/4
f 8/5/1 77/25/1 102/26/1 16/5/1
f 66/16/6 67/15/6 92/27/6 89/28/6
f 68/29/6 69/30/6 94/31/6 91/32/6
f 70/33/6 71/34/6 96/35/6 93/36/6
f 72/37/6 73/38/6 98/39/6 95/40/6
f 74/41/6 75/42/6 100/43/6 97/44/6
f 76/45/6 6/4/6 15/4/6 99/46/6
f 78/20/1 79/19/1 104/47/1 101/48/1
f 80/49/1 81/50/1 106/51/1 103/52/1
f 82/53/1 83/54/1 108/55/1 105/56/1
f 84/57/1 85/58/1 110/59/1 107/60/1
f 86/61/1 87/62/1 112/63/1 109/64/1
f 88/65/1 7/14/1 13/14/1 111/24/1
f 89/28/4 92/66/4 109/67/4 112/63/4
f 91/32/4 94/31/4 107/68/4 110/69/4
f 93/36/4 96/35/4 105/56/4 108/55/4
f 95/70/4 98/71/4 103/72/4 106/73/4
f 97/74/4 100/43/4 101/48/4 104/75/4
f 99/46/4 15/4/4 16/5/4 102/26/4
f 5/9/6 65/8/6 90/23/6 14/9/6
f 31/111/5 26/110/5 25/109/5 32/108/5
usemtl blocks_base
f 28/11/5 29/12/5 4/1/5 2/13/5
f 18/97/5 39/98/5 38/99/5 19/100/5
f 22/102/5 35/103/5 34/104/5 23/105/5
f 24/106/5 33/107/5 32/108/5 25/109/5
f 26/110/5 31/111/5 30/112/5 27/113/5
f 20/127/5 37/120/5 36/119/5 21/128/5
f 39/98/5 18/97/5 17/101/5 40/124/5
f 37/120/5 20/127/5 19/100/5 38/99/5
f 35/103/5 22/102/5 21/128/5 36/119/5
f 33/107/5 24/106/5 23/105/5 34/104/5
f 29/12/5 28/11/5 27/113/5 30/112/5
f 1/7/5 3/6/5 40/124/5 17/101/5
usemtl street_blocks_
f 4/1/1 29/2/1 53/3/1 12/1/1
f 3/6/3 1/7/3 10/7/3 9/6/3
f 65/8/4 5/9/4 10/7/4 41/10/4
f 2/13/2 4/1/2 12/1/2 11/13/2
f 5/9/4 7/14/4 9/6/4 10/7/4
f 67/15/4 66/16/4 42/17/4 43/18/4
f 8/5/4 6/4/4 11/13/4 12/1/4
f 79/19/4 78/20/4 54/21/4 55/22/4
f 7/14/4 88/65/4 64/76/4 9/6/4
f 87/62/4 86/61/4 62/77/4 63/78/4
f 85/58/4 84/79/4 60/80/4 61/81/4
f 83/54/4 82/53/4 58/82/4 59/83/4
f 81/84/4 80/49/4 56/85/4 57/86/4
f 77/25/4 8/5/4 12/1/4 53/3/4
f 6/4/4 76/45/4 52/87/4 11/13/4
f 75/42/4 74/41/4 50/88/4 51/89/4
f 73/38/4 72/90/4 48/91/4 49/92/4
f 71/34/4 70/33/4 46/93/4 47/94/4
f 69/30/4 68/29/4 44/95/4 45/96/4
f 1/7/6 17/101/6 41/10/6 10/7/6
f 28/114/6 2/13/6 11/13/6 52/87/6
f 30/112/1 31/111/1 55/22/1 54/21/1
f 32/108/1 33/107/1 57/86/1 56/85/1
f 34/115/1 35/116/1 59/117/1 58/118/1
f 36/119/1 37/120/1 61/81/1 60/121/1
f 38/122/1 39/123/1 63/78/1 62/77/1
f 40/124/1 3/6/1 9/6/1 64/76/1
f 18/125/6 19/126/6 43/18/6 42/17/6
f 20/127/6 21/128/6 45/129/6 44/95/6
f 22/130/6 23/131/6 47/132/6 46/133/6
f 24/106/6 25/109/6 49/92/6 48/91/6
f 26/110/6 27/113/6 51/89/6 50/88/6
f 87/62/4 63/78/4 64/76/4 88/65/4
f 85/58/4 61/81/4 62/77/4 86/61/4
f 83/54/4 59/83/4 60/80/4 84/79/4
f 81/84/4 57/86/4 58/82/4 82/53/4
f 79/19/4 55/22/4 56/85/4 80/49/4
f 77/25/4 53/3/4 54/21/4 78/20/4
f 75/42/4 51/89/4 52/87/4 76/45/4
f 73/38/4 49/92/4 50/88/4 74/41/4
f 71/34/4 47/94/4 48/91/4 72/90/4
f 69/30/4 45/96/4 46/93/4 70/33/4
f 67/15/4 43/18/4 44/95/4 68/29/4
f 65/8/4 41/10/4 42/17/4 66/16/4
f 18/125/6 42/17/6 41/10/6 17/101/6
f 20/127/6 44/95/6 43/18/6 19/126/6
f 22/130/6 46/133/6 45/129/6 21/128/6
f 24/106/6 48/91/6 47/132/6 23/131/6
f 26/110/6 50/88/6 49/92/6 25/109/6
f 28/114/6 52/87/6 51/89/6 27/113/6
f 30/112/1 54/21/1 53/3/1 29/2/1
f 32/108/1 56/85/1 55/22/1 31/111/1
f 34/115/1 58/118/1 57/86/1 33/107/1
f 36/119/1 60/121/1 59/117/1 35/116/1
f 38/122/1 62/77/1 61/81/1 37/120/1
f 40/124/1 64/76/1 63/78/1 39/123/1
