# Blender 4.0.0
# www.blender.org
mtllib intersectionRoad.mtl
o intersection_road
v 7.081627 0.597126 -26.569096
v 0.036330 0.000000 -33.614391
v 2.384762 0.597126 -28.917528
v 0.036330 0.597126 -33.614391
v 2.384762 0.597126 -33.614391
v 2.384762 0.000000 -33.614391
v -2.312102 0.000000 -33.614391
v -4.660534 0.000000 -26.569096
v 2.384762 0.000000 -26.569096
v 7.081627 0.000000 -24.220665
v 7.081627 0.000000 -28.917528
v 0.036330 0.597126 -28.917528
v -4.660534 0.000000 -33.614391
v 2.384762 0.597126 -26.569096
v 7.081627 0.597126 -28.917528
v -2.312102 0.000000 -26.569096
v 7.081627 0.000000 -26.569096
v 0.036330 0.000000 -28.917528
v -2.312102 0.000000 -24.220665
v -2.312102 0.000000 -28.917528
v 0.036331 0.000000 -24.220665
v 2.384763 0.000000 -24.220665
v 2.384762 0.000000 -28.917528
v 0.679960 0.000000 -26.569096
v 0.036331 0.000000 -27.212727
v -0.607299 0.000000 -26.569096
v 0.036331 0.000000 -25.925467
v 0.224844 0.000000 -26.757610
v 0.036331 0.597126 -27.212727
v 0.679960 0.597126 -26.569096
v 0.224844 0.597126 -26.757610
v -4.660534 0.000000 -24.220665
v -4.660534 0.000000 -28.917528
v 4.733194 0.597126 -26.569096
v 4.733194 0.000000 -26.569096
v 4.733194 0.597126 -28.917528
v 4.733195 0.000000 -24.220665
v 4.733194 0.000000 -28.917528
v 7.081627 0.000000 -19.915751
v -4.660534 0.000000 -19.915751
v -2.312102 0.000000 -19.915751
v 2.384763 0.000000 -19.915751
v 0.036331 0.000000 -19.915751
v 4.733195 0.000000 -19.915751
v -6.609478 0.000000 -33.614391
v -6.609478 0.000000 -26.569096
v -6.609478 0.000000 -24.220665
v -6.609478 0.000000 -28.917528
v -6.609478 0.000000 -19.915751
v -21.099558 0.597126 -26.569096
v -14.054260 0.000000 -33.614391
v -16.402693 0.597126 -28.917528
v -14.054260 0.597126 -33.614391
v -16.402693 0.597126 -33.614391
v -16.402693 0.000000 -33.614391
v -11.705830 0.000000 -33.614391
v -9.357397 0.000000 -26.569096
v -16.402693 0.000000 -26.569096
v -21.099558 0.000000 -24.220665
v -21.099558 0.000000 -28.917528
v -14.054261 0.597126 -28.917528
v -9.357397 0.000000 -33.614391
v -16.402693 0.597126 -26.569096
v -21.099558 0.597126 -28.917528
v -11.705830 0.000000 -26.569096
v -21.099558 0.000000 -26.569096
v -14.054261 0.000000 -28.917528
v -11.705830 0.000000 -24.220665
v -11.705830 0.000000 -28.917528
v -14.054262 0.000000 -24.220665
v -16.402695 0.000000 -24.220665
v -16.402693 0.000000 -28.917528
v -14.697891 0.000000 -26.569096
v -14.054262 0.000000 -27.212727
v -13.410632 0.000000 -26.569096
v -14.054262 0.000000 -25.925467
v -14.242775 0.000000 -26.757610
v -14.054262 0.597126 -27.212727
v -14.697891 0.597126 -26.569096
v -14.242775 0.597126 -26.757610
v -9.357397 0.000000 -24.220665
v -9.357397 0.000000 -28.917528
v -18.751125 0.597126 -26.569096
v -18.751125 0.000000 -26.569096
v -18.751125 0.597126 -28.917528
v -18.751125 0.000000 -24.220665
v -18.751125 0.000000 -28.917528
v -21.099558 0.000000 -19.915751
v -9.357397 0.000000 -19.915751
v -11.705830 0.000000 -19.915751
v -16.402695 0.000000 -19.915751
v -14.054262 0.000000 -19.915751
v -18.751125 0.000000 -19.915751
v -7.408453 0.000000 -33.614391
v -7.408453 0.000000 -26.569096
v -7.408453 0.000000 -24.220665
v -7.408453 0.000000 -28.917528
v -7.408453 0.000000 -19.915751
v 7.081627 0.597126 -12.478504
v 0.036330 0.000000 -5.433208
v 2.384762 0.597126 -10.130072
v 0.036330 0.597126 -5.433208
v 2.384762 0.597126 -5.433208
v 2.384762 0.000000 -5.433208
v -2.312102 0.000000 -5.433208
v -4.660534 0.000000 -12.478504
v 2.384762 0.000000 -12.478504
v 7.081627 0.000000 -14.826935
v 7.081627 0.000000 -10.130072
v 0.036330 0.597126 -10.130072
v -4.660534 0.000000 -5.433208
v 2.384762 0.597126 -12.478504
v 7.081627 0.597126 -10.130072
v -2.312102 0.000000 -12.478504
v 7.081627 0.000000 -12.478504
v 0.036330 0.000000 -10.130072
v -2.312102 0.000000 -14.826935
v -2.312102 0.000000 -10.130072
v 0.036331 0.000000 -14.826935
v 2.384763 0.000000 -14.826935
v 2.384762 0.000000 -10.130072
v 0.679960 0.000000 -12.478504
v 0.036331 0.000000 -11.834874
v -0.607299 0.000000 -12.478504
v 0.036331 0.000000 -13.122133
v 0.224844 0.000000 -12.289989
v 0.036331 0.597126 -11.834874
v 0.679960 0.597126 -12.478504
v 0.224844 0.597126 -12.289989
v -4.660534 0.000000 -14.826935
v -4.660534 0.000000 -10.130072
v 4.733194 0.597126 -12.478504
v 4.733194 0.000000 -12.478504
v 4.733194 0.597126 -10.130072
v 4.733195 0.000000 -14.826935
v 4.733194 0.000000 -10.130072
v 7.081627 0.000000 -19.131849
v -4.660534 0.000000 -19.131849
v -2.312102 0.000000 -19.131849
v 2.384763 0.000000 -19.131849
v 0.036331 0.000000 -19.131849
v 4.733195 0.000000 -19.131849
v -6.609478 0.000000 -5.433208
v -6.609478 0.000000 -12.478504
v -6.609478 0.000000 -14.826935
v -6.609478 0.000000 -10.130072
v -6.609478 0.000000 -19.131849
v -21.099558 0.597126 -12.478504
v -14.054260 0.000000 -5.433208
v -16.402693 0.597126 -10.130072
v -14.054260 0.597126 -5.433208
v -16.402693 0.597126 -5.433208
v -16.402693 0.000000 -5.433208
v -11.705830 0.000000 -5.433208
v -9.357397 0.000000 -12.478504
v -16.402693 0.000000 -12.478504
v -21.099558 0.000000 -14.826935
v -21.099558 0.000000 -10.130072
v -14.054261 0.597126 -10.130072
v -9.357397 0.000000 -5.433208
v -16.402693 0.597126 -12.478504
v -21.099558 0.597126 -10.130072
v -11.705830 0.000000 -12.478504
v -21.099558 0.000000 -12.478504
v -14.054261 0.000000 -10.130072
v -11.705830 0.000000 -14.826935
v -11.705830 0.000000 -10.130072
v -14.054262 0.000000 -14.826935
v -16.402695 0.000000 -14.826935
v -16.402693 0.000000 -10.130072
v -14.697891 0.000000 -12.478504
v -14.054262 0.000000 -11.834874
v -13.410632 0.000000 -12.478504
v -14.054262 0.000000 -13.122133
v -14.242775 0.000000 -12.289989
v -14.054262 0.597126 -11.834874
v -14.697891 0.597126 -12.478504
v -14.242775 0.597126 -12.289989
v -9.357397 0.000000 -14.826935
v -9.357397 0.000000 -10.130072
v -18.751125 0.597126 -12.478504
v -18.751125 0.000000 -12.478504
v -18.751125 0.597126 -10.130072
v -18.751125 0.000000 -14.826935
v -18.751125 0.000000 -10.130072
v -21.099558 0.000000 -19.131849
v -9.357397 0.000000 -19.131849
v -11.705830 0.000000 -19.131849
v -16.402695 0.000000 -19.131849
v -14.054262 0.000000 -19.131849
v -18.751125 0.000000 -19.131849
v -7.408453 0.000000 -5.433208
v -7.408453 0.000000 -12.478504
v -7.408453 0.000000 -14.826935
v -7.408453 0.000000 -10.130072
v -7.408453 0.000000 -19.131849
v 7.081627 0.000000 -22.068207
v -4.660534 0.000000 -22.068207
v -2.312102 0.000000 -22.068207
v 2.384763 0.000000 -22.068207
v 0.036331 0.000000 -22.068207
v 4.733195 0.000000 -22.068207
v -6.609478 0.000000 -22.068207
v -21.099558 0.000000 -22.068207
v -9.357397 0.000000 -22.068207
v -11.705830 0.000000 -22.068207
v -16.402695 0.000000 -22.068207
v -14.054262 0.000000 -22.068207
v -18.751125 0.000000 -22.068207
v -7.408453 0.000000 -22.068207
v 7.081627 0.000000 -16.979393
v -4.660534 0.000000 -16.979393
v -2.312102 0.000000 -16.979393
v 2.384763 0.000000 -16.979393
v 0.036331 0.000000 -16.979393
v 4.733195 0.000000 -16.979393
v -6.609478 0.000000 -16.979393
v -21.099558 0.000000 -16.979393
v -9.357397 0.000000 -16.979393
v -11.705830 0.000000 -16.979393
v -16.402695 0.000000 -16.979393
v -14.054262 0.000000 -16.979393
v -18.751125 0.000000 -16.979393
v -7.408453 0.000000 -16.979393
vn -1.0000 -0.0000 -0.0000
vn -0.0000 1.0000 -0.0000
vn -0.0000 -0.0000 1.0000
vn -0.0000 -0.0000 -1.0000
vn 1.0000 -0.0000 -0.0000
vn -0.3827 -0.0000 0.9239
vn -0.9239 -0.0000 0.3827
vn 0.3827 -0.0000 0.9239
vn 0.9239 -0.0000 0.3827
vn -0.3827 -0.0000 -0.9239
vn -0.9239 -0.0000 -0.3827
vn 0.3827 -0.0000 -0.9239
vn 0.9239 -0.0000 -0.3827
vt 0.750000 0.833333
vt 0.750000 0.772839
vt 0.750000 0.772839
vt 0.583333 0.833333
vt 0.666667 0.833333
vt 0.666667 1.000000
vt 0.583333 1.000000
vt 0.916667 0.750000
vt 1.000000 0.750000
vt 0.916667 0.750000
vt 1.000000 0.833333
vt 0.916667 0.833333
vt 0.514176 0.750000
vt 0.583333 0.750000
vt 0.514176 0.833333
vt 0.833333 0.833333
vt 0.833333 1.000000
vt 0.750000 1.000000
vt 0.750000 0.590287
vt 0.833333 0.590287
vt 0.833333 0.666667
vt 0.750000 0.666667
vt 0.752230 0.752230
vt 0.772839 0.750000
vt 0.833333 0.750000
vt 0.666667 0.750000
vt 0.727161 0.750000
vt 0.583333 0.666667
vt 0.666667 0.666667
vt 0.583333 0.590287
vt 0.666667 0.590287
vt 0.000000 0.000000
vt 0.750000 0.727161
vt 0.916667 0.666667
vt 1.000000 0.666667
vt 0.916667 0.590287
vt 1.000000 0.590287
vt 0.756689 0.750000
vt 0.750000 0.750000
vt 0.514176 0.590287
vt 0.514176 0.666667
vt 0.514176 1.000000
vt 0.916667 0.513908
vt 1.000000 0.513908
vt 0.833333 0.513908
vt 0.750000 0.513908
vt 0.583333 0.513908
vt 0.666667 0.513908
vt 0.514176 0.513908
s 0
usemtl intersection_road
f 33/4/2 20/5/2 7/6/2 13/7/2
f 46/13/2 8/14/2 33/4/2 48/15/2
f 201/19/2 200/20/2 22/21/2 21/22/2
f 16/26/2 26/27/2 25/2/2 18/1/2 20/5/2
f 32/28/2 19/29/2 16/26/2 8/14/2
f 198/30/2 199/31/2 19/29/2 32/28/2
f 8/14/2 16/26/2 20/5/2 33/4/2
f 21/22/2 22/21/2 9/25/2 24/24/2 27/33/2
f 37/34/2 10/35/2 17/9/2 35/8/2
f 20/5/2 18/1/2 2/18/2 7/6/2
f 199/31/2 201/19/2 21/22/2 19/29/2
f 202/36/2 197/37/2 10/35/2 37/34/2
f 24/24/2 28/38/2 25/39/2 26/27/2 27/33/2
f 203/40/2 198/30/2 32/28/2 47/41/2
f 48/15/2 33/4/2 13/7/2 45/42/2
f 200/20/2 202/36/2 37/34/2 22/21/2
f 22/21/2 37/34/2 35/8/2 9/25/2
f 91/45/2 189/45/2 190/46/2 92/46/2
f 46/13/2 95/13/2 96/41/2 47/41/2
f 82/4/2 62/7/2 56/6/2 69/5/2
f 95/13/2 97/15/2 82/4/2 57/14/2
f 208/19/2 70/22/2 71/21/2 207/20/2
f 65/26/2 69/5/2 67/1/2 74/2/2 75/27/2
f 81/28/2 57/14/2 65/26/2 68/29/2
f 205/30/2 81/28/2 68/29/2 206/31/2
f 57/14/2 82/4/2 69/5/2 65/26/2
f 70/22/2 76/33/2 73/24/2 58/25/2 71/21/2
f 86/34/2 84/8/2 66/9/2 59/35/2
f 69/5/2 56/6/2 51/18/2 67/1/2
f 206/31/2 68/29/2 70/22/2 208/19/2
f 209/36/2 86/34/2 59/35/2 204/37/2
f 73/24/2 76/33/2 75/27/2 74/39/2 77/38/2
f 210/40/2 96/41/2 81/28/2 205/30/2
f 97/15/2 94/42/2 62/7/2 82/4/2
f 207/20/2 71/21/2 86/34/2 209/36/2
f 71/21/2 58/25/2 84/8/2 86/34/2
f 89/47/2 187/47/2 196/49/2 98/49/2
f 147/49/2 49/49/2 98/49/2 196/49/2
f 49/49/2 147/49/2 138/47/2 40/47/2
f 131/4/2 111/7/2 105/6/2 118/5/2
f 144/13/2 146/15/2 131/4/2 106/14/2
f 215/19/2 119/22/2 120/21/2 214/20/2
f 114/26/2 118/5/2 116/1/2 123/2/2 124/27/2
f 130/28/2 106/14/2 114/26/2 117/29/2
f 212/30/2 130/28/2 117/29/2 213/31/2
f 106/14/2 131/4/2 118/5/2 114/26/2
f 119/22/2 125/33/2 122/24/2 107/25/2 120/21/2
f 135/34/2 133/8/2 115/9/2 108/35/2
f 118/5/2 105/6/2 100/18/2 116/1/2
f 213/31/2 117/29/2 119/22/2 215/19/2
f 216/36/2 135/34/2 108/35/2 211/37/2
f 122/24/2 125/33/2 124/27/2 123/39/2 126/38/2
f 217/40/2 145/41/2 130/28/2 212/30/2
f 146/15/2 143/42/2 111/7/2 131/4/2
f 214/20/2 120/21/2 135/34/2 216/36/2
f 120/21/2 107/25/2 133/8/2 135/34/2
f 145/41/2 194/41/2 193/13/2 144/13/2
f 180/4/2 167/5/2 154/6/2 160/7/2
f 193/13/2 155/14/2 180/4/2 195/15/2
f 222/19/2 221/20/2 169/21/2 168/22/2
f 163/26/2 173/27/2 172/2/2 165/1/2 167/5/2
f 179/28/2 166/29/2 163/26/2 155/14/2
f 219/30/2 220/31/2 166/29/2 179/28/2
f 155/14/2 163/26/2 167/5/2 180/4/2
f 168/22/2 169/21/2 156/25/2 171/24/2 174/33/2
f 184/34/2 157/35/2 164/9/2 182/8/2
f 167/5/2 165/1/2 149/18/2 154/6/2
f 220/31/2 222/19/2 168/22/2 166/29/2
f 223/36/2 218/37/2 157/35/2 184/34/2
f 171/24/2 175/38/2 172/39/2 173/27/2 174/33/2
f 224/40/2 219/30/2 179/28/2 194/41/2
f 195/15/2 180/4/2 160/7/2 192/42/2
f 221/20/2 223/36/2 184/34/2 169/21/2
f 169/21/2 184/34/2 182/8/2 156/25/2
f 91/45/2 207/20/2 209/36/2 93/43/2
f 98/49/2 210/40/2 205/30/2 89/47/2
f 93/43/2 209/36/2 204/37/2 88/44/2
f 90/48/2 206/31/2 208/19/2 92/46/2
f 89/47/2 205/30/2 206/31/2 90/48/2
f 42/45/2 44/43/2 202/36/2 200/20/2
f 49/49/2 40/47/2 198/30/2 203/40/2
f 44/43/2 39/44/2 197/37/2 202/36/2
f 41/48/2 43/46/2 201/19/2 199/31/2
f 40/47/2 41/48/2 199/31/2 198/30/2
f 189/45/2 191/43/2 223/36/2 221/20/2
f 196/49/2 187/47/2 219/30/2 224/40/2
f 191/43/2 186/44/2 218/37/2 223/36/2
f 188/48/2 190/46/2 222/19/2 220/31/2
f 187/47/2 188/48/2 220/31/2 219/30/2
f 140/45/2 214/20/2 216/36/2 142/43/2
f 147/49/2 217/40/2 212/30/2 138/47/2
f 142/43/2 216/36/2 211/37/2 137/44/2
f 139/48/2 213/31/2 215/19/2 141/46/2
f 138/47/2 212/30/2 213/31/2 139/48/2
f 43/46/2 141/46/2 140/45/2 42/45/2
usemtl intersection_white_stripes
f 19/29/2 21/22/2 27/33/2 26/27/2 16/26/2
f 47/41/2 32/28/2 8/14/2 46/13/2
f 68/29/2 65/26/2 75/27/2 76/33/2 70/22/2
f 96/41/2 95/13/2 57/14/2 81/28/2
f 117/29/2 114/26/2 124/27/2 125/33/2 119/22/2
f 145/41/2 144/13/2 106/14/2 130/28/2
f 166/29/2 168/22/2 174/33/2 173/27/2 163/26/2
f 194/41/2 179/28/2 155/14/2 193/13/2
f 92/46/2 208/19/2 207/20/2 91/45/2
f 43/46/2 42/45/2 200/20/2 201/19/2
f 190/46/2 189/45/2 221/20/2 222/19/2
f 141/46/2 215/19/2 214/20/2 140/45/2
usemtl intersection_yellow_stripes
f 44/43/2 142/43/2 137/44/2 39/44/2
f 42/45/2 140/45/2 142/43/2 44/43/2
f 45/42/2 94/42/2 97/15/2 48/15/2
f 40/47/2 138/47/2 139/48/2 41/48/2
f 47/41/2 96/41/2 210/40/2 203/40/2
f 41/48/2 139/48/2 141/46/2 43/46/2
f 48/15/2 97/15/2 95/13/2 46/13/2
f 88/44/2 186/44/2 191/43/2 93/43/2
f 146/15/2 195/15/2 192/42/2 143/42/2
f 93/43/2 191/43/2 189/45/2 91/45/2
f 92/46/2 190/46/2 188/48/2 90/48/2
f 224/40/2 194/41/2 145/41/2 217/40/2
f 49/49/2 203/40/2 210/40/2 98/49/2
f 144/13/2 193/13/2 195/15/2 146/15/2
f 90/48/2 188/48/2 187/47/2 89/47/2
f 224/40/2 217/40/2 147/49/2 196/49/2
usemtl side_walk
f 18/1/1 25/2/1 29/3/1 12/1/1
f 35/8/3 17/9/3 1/9/3 34/10/3
f 34/10/2 1/9/2 15/11/2 36/12/2
f 12/1/2 3/16/2 5/17/2 4/18/2
f 29/3/2 31/23/2 30/24/2 14/25/2 3/16/2 12/1/2
f 24/24/3 9/25/3 14/25/3 30/24/3
f 6/32/4 2/32/4 4/32/4 5/32/4
f 2/18/1 18/1/1 12/1/1 4/18/1
f 17/32/5 11/32/5 15/32/5 1/32/5
f 38/32/4 23/32/4 3/32/4 36/32/4
f 23/32/5 6/32/5 5/32/5 3/32/5
f 24/24/6 30/24/6 31/23/6 28/39/6
f 28/39/7 31/23/7 29/3/7 25/2/7
f 11/32/4 38/32/4 36/32/4 15/32/4
f 14/25/2 34/10/2 36/12/2 3/16/2
f 9/25/3 35/8/3 34/10/3 14/25/3
f 67/1/5 61/1/5 78/3/5 74/2/5
f 84/8/3 83/10/3 50/9/3 66/9/3
f 83/10/2 85/12/2 64/11/2 50/9/2
f 61/1/2 53/18/2 54/17/2 52/16/2
f 78/3/2 61/1/2 52/16/2 63/25/2 79/24/2 80/23/2
f 73/24/3 79/24/3 63/25/3 58/25/3
f 55/32/4 54/32/4 53/32/4 51/32/4
f 51/18/5 53/18/5 61/1/5 67/1/5
f 66/32/1 50/32/1 64/32/1 60/32/1
f 87/32/4 85/32/4 52/32/4 72/32/4
f 72/32/1 52/32/1 54/32/1 55/32/1
f 73/24/8 77/39/8 80/23/8 79/24/8
f 77/39/9 74/2/9 78/3/9 80/23/9
f 60/32/4 64/32/4 85/32/4 87/32/4
f 63/25/2 52/16/2 85/12/2 83/10/2
f 58/25/3 63/25/3 83/10/3 84/8/3
f 116/1/1 110/1/1 127/3/1 123/2/1
f 133/8/4 132/10/4 99/9/4 115/9/4
f 132/10/2 134/12/2 113/11/2 99/9/2
f 110/1/2 102/18/2 103/17/2 101/16/2
f 127/3/2 110/1/2 101/16/2 112/25/2 128/24/2 129/23/2
f 122/24/4 128/24/4 112/25/4 107/25/4
f 104/32/3 103/32/3 102/32/3 100/32/3
f 100/18/1 102/18/1 110/1/1 116/1/1
f 115/32/5 99/32/5 113/32/5 109/32/5
f 136/32/3 134/32/3 101/32/3 121/32/3
f 121/32/5 101/32/5 103/32/5 104/32/5
f 122/24/10 126/39/10 129/23/10 128/24/10
f 126/39/11 123/2/11 127/3/11 129/23/11
f 109/32/3 113/32/3 134/32/3 136/32/3
f 112/25/2 101/16/2 134/12/2 132/10/2
f 107/25/4 112/25/4 132/10/4 133/8/4
f 165/1/5 172/2/5 176/3/5 159/1/5
f 182/8/4 164/9/4 148/9/4 181/10/4
f 181/10/2 148/9/2 162/11/2 183/12/2
f 159/1/2 150/16/2 152/17/2 151/18/2
f 176/3/2 178/23/2 177/24/2 161/25/2 150/16/2 159/1/2
f 171/24/4 156/25/4 161/25/4 177/24/4
f 153/32/3 149/32/3 151/32/3 152/32/3
f 149/18/5 165/1/5 159/1/5 151/18/5
f 164/32/1 158/32/1 162/32/1 148/32/1
f 185/32/3 170/32/3 150/32/3 183/32/3
f 170/32/1 153/32/1 152/32/1 150/32/1
f 171/24/12 177/24/12 178/23/12 175/39/12
f 175/39/13 178/23/13 176/3/13 172/2/13
f 158/32/3 185/32/3 183/32/3 162/32/3
f 161/25/2 181/10/2 183/12/2 150/16/2
f 156/25/4 182/8/4 181/10/4 161/25/4
