# Blender 4.0.0
# www.blender.org
mtllib streetLight.mtl
o street_light
v 21.513500 0.010900 -0.344375
v 21.626366 0.010900 -0.071894
v 21.898846 0.010900 0.040971
v 22.171326 0.010900 -0.071894
v 22.284191 0.010900 -0.344375
v 22.171326 0.010900 -0.616856
v 21.898846 0.010900 -0.729721
v 21.626366 0.010900 -0.616856
v 21.626366 3.029331 -0.071894
v 21.513500 3.029331 -0.344375
v 21.898846 3.029331 0.040971
v 22.171326 3.029331 -0.071894
v 22.284191 3.029331 -0.344375
v 22.171326 3.029331 -0.616856
v 21.898846 3.029331 -0.729721
v 21.626366 3.029331 -0.616856
v 21.786697 3.029331 -0.232227
v 21.740244 3.029331 -0.344375
v 21.898846 3.029331 -0.185774
v 22.010994 3.029331 -0.232227
v 22.057447 3.029331 -0.344375
v 22.010994 3.029331 -0.456523
v 21.898846 3.029331 -0.502976
v 21.786697 3.029331 -0.456523
v 21.786697 9.600958 -0.232227
v 21.740244 9.600958 -0.344375
v 21.898846 9.600958 -0.185774
v 22.010994 9.600958 -0.232227
v 22.057447 9.600958 -0.344375
v 22.010994 9.600958 -0.456523
v 21.898846 9.600958 -0.502976
v 21.786697 9.600958 -0.456523
v 21.786697 11.577908 2.118064
v 21.898846 11.624352 2.117110
v 22.010994 11.577908 2.118064
v 22.057447 11.465783 2.120368
v 22.010994 11.353660 2.122671
v 21.898846 11.307216 2.123625
v 21.740244 11.465783 2.120368
v 21.786697 11.353660 2.122671
v 21.786697 11.368696 1.374550
v 21.740244 11.480821 1.372246
v 21.898846 11.322253 1.375504
v 22.010994 11.368696 1.374550
v 22.057447 11.480821 1.372246
v 22.010994 11.592943 1.369943
v 21.898846 11.639387 1.368989
v 21.786697 11.592943 1.369943
v 21.786697 11.452664 0.439633
v 21.898846 11.497374 0.427021
v 22.010994 11.452664 0.439633
v 22.057447 11.344728 0.470080
v 22.010994 11.236794 0.500528
v 21.898846 11.192085 0.513140
v 21.740244 11.344728 0.470080
v 21.786697 11.236794 0.500528
v 21.786697 10.844347 0.055054
v 21.740244 10.927059 -0.020681
v 21.898846 10.810085 0.086425
v 22.010994 10.844347 0.055054
v 22.057447 10.927059 -0.020681
v 22.010994 11.009771 -0.096417
v 21.898846 11.044032 -0.127788
v 21.786697 11.009771 -0.096417
v 21.786697 10.402107 -0.382434
v 21.898846 10.422547 -0.424149
v 22.010994 10.402107 -0.382434
v 22.057447 10.352763 -0.281725
v 22.010994 10.303419 -0.181015
v 21.898846 10.282980 -0.139300
v 21.740244 10.352763 -0.281725
v 21.786697 10.303419 -0.181015
v 21.312992 12.051503 2.108334
v 21.898846 12.193995 2.103351
v 22.484699 12.051503 2.108334
v 22.727367 11.465777 2.120367
v 22.407116 11.223619 2.210646
v 21.898846 11.223619 2.214968
v 21.070324 11.465777 2.120367
v 21.390575 11.223619 2.210646
v 21.312992 12.051503 3.314970
v 21.898846 12.193995 3.309988
v 22.484699 12.051503 3.314970
v 22.727367 11.465777 3.327004
v 22.407116 11.223619 3.329145
v 21.070324 11.465777 3.327004
v 21.312992 11.223619 3.339037
v 21.504192 11.896132 4.060438
v 21.898846 11.992119 4.057081
v 22.293499 11.896132 4.060438
v 22.456968 11.501564 4.068543
v 22.219543 11.223619 4.052761
v 21.340723 11.501564 4.068543
v 21.504192 11.223619 4.076649
v 21.602125 11.789817 4.401880
v 21.898846 11.853983 4.399637
v 22.195566 11.789817 4.401880
v 22.318472 11.526052 4.407300
v 22.109440 11.223619 4.335584
v 21.898846 11.223619 4.337375
v 21.479219 11.526052 4.407300
v 21.688251 11.223619 4.335584
v 22.484699 11.223619 2.132400
v 21.898846 11.223619 2.137383
v 21.312992 11.223619 2.132400
v 21.390575 11.223619 3.329145
v 22.484699 11.223619 3.339037
v 21.578148 11.223619 4.052761
v 22.293499 11.223619 4.076649
v 22.195566 11.223619 4.412717
v 21.898846 11.223619 4.414961
v 21.602125 11.223619 4.412717
v 22.407116 11.348383 3.329145
v 21.898846 11.348383 3.344020
v 21.390575 11.348383 3.329145
v 21.898846 11.348383 2.214968
v 22.219543 11.348383 4.052761
v 21.898846 11.348383 4.080005
v 21.578148 11.348383 4.052761
v 21.898846 11.348383 4.337375
v 22.407116 11.348383 2.210646
v 21.390575 11.348383 2.210646
v 22.109440 11.348383 4.335584
v 21.688251 11.348383 4.335584
vn -0.3827 -0.0000 0.9239
vn -0.3827 -0.0000 -0.9239
vn 0.9239 -0.0000 -0.3827
vn 0.3827 -0.0000 0.9239
vn -0.9239 -0.0000 0.3827
vn -0.9239 -0.0000 -0.3827
vn 0.3827 -0.0000 -0.9239
vn 0.9239 -0.0000 0.3827
vn -0.0000 1.0000 -0.0000
vn -0.9238 -0.3829 -0.0077
vn 0.3824 -0.9238 -0.0186
vn 0.9238 0.3829 0.0077
vn -0.3824 0.9238 0.0186
vn -0.3824 -0.9238 -0.0186
vn 0.9238 -0.3829 -0.0077
vn 0.3824 0.9238 0.0186
vn -0.9238 0.3829 0.0077
vn 0.9228 -0.3810 0.0575
vn -0.3800 -0.9146 0.1380
vn -0.3800 0.9146 -0.1379
vn 0.9228 0.3810 -0.0575
vn 0.3800 -0.9146 0.1380
vn -0.9228 -0.3810 0.0575
vn -0.9228 0.3810 -0.0575
vn 0.3800 0.9146 -0.1379
vn -0.3661 -0.6958 0.6179
vn 0.9170 -0.3016 0.2609
vn 0.3686 0.7183 -0.5901
vn -0.9175 0.3048 -0.2555
vn -0.9170 -0.3016 0.2609
vn 0.3661 -0.6958 0.6179
vn 0.9175 0.3048 -0.2555
vn -0.3686 0.7183 -0.5901
vn 0.3681 -0.3690 0.8534
vn -0.9179 -0.1615 0.3624
vn -0.9184 0.1662 -0.3591
vn 0.3705 0.3977 -0.8394
vn 0.9179 -0.1615 0.3624
vn -0.3681 -0.3690 0.8534
vn -0.3705 0.3977 -0.8394
vn 0.9184 0.1662 -0.3591
vn 0.3713 0.0871 -0.9244
vn -0.9189 0.0346 -0.3930
vn -0.9187 -0.0308 0.3938
vn 0.3702 -0.0654 0.9266
vn 0.9189 0.0346 -0.3930
vn -0.3713 0.0871 -0.9244
vn -0.3702 -0.0654 0.9266
vn 0.9187 -0.0308 0.3938
vn -0.0021 -0.0235 -0.9997
vn 0.0010 -0.1115 -0.9938
vn 0.0036 -0.0433 -0.9991
vn 0.0021 -0.0235 -0.9997
vn -0.0000 -0.0205 -0.9998
vn -0.0036 -0.0433 -0.9991
vn -0.0010 -0.1115 -0.9938
vn 0.0085 -0.0000 -1.0000
vn 0.7064 -0.7078 -0.0000
vn 0.2363 0.9717 -0.0000
vn -0.9239 0.3828 -0.0000
vn -0.7064 -0.7078 -0.0000
vn 0.0085 -0.0000 1.0000
vn 0.9239 0.3828 -0.0000
vn -0.2363 0.9717 -0.0000
vn -0.2265 0.9403 0.2541
vn -1.0000 -0.0000 -0.0000
vn 0.7671 -0.5892 0.2537
vn 0.2265 0.9403 0.2541
vn -0.8784 0.3701 0.3024
vn -0.7671 -0.5892 0.2537
vn -0.0085 -0.0000 -1.0000
vn 0.8784 0.3701 0.3024
vn -0.8542 -0.4142 0.3143
vn -0.9319 -0.0000 -0.3628
vn 0.8584 0.3805 0.3441
vn -0.2082 0.9112 0.3555
vn 1.0000 -0.0000 -0.0000
vn 0.8542 -0.4142 0.3143
vn 0.2082 0.9112 0.3555
vn -0.8584 0.3805 0.3441
vn -0.0000 0.0214 0.9998
vn -0.0000 -1.0000 -0.0000
vn 0.9680 -0.0000 -0.2509
vn -0.0085 -0.0000 1.0000
vn 0.9319 -0.0000 -0.3628
vn -0.9680 -0.0000 -0.2509
vt 0.000000 0.000000
s 0
usemtl street_light_pole
f 2/1/1 3/1/1 11/1/1 9/1/1
f 7/1/2 8/1/2 16/1/2 15/1/2
f 5/1/3 6/1/3 14/1/3 13/1/3
f 3/1/4 4/1/4 12/1/4 11/1/4
f 1/1/5 2/1/5 9/1/5 10/1/5
f 8/1/6 1/1/6 10/1/6 16/1/6
f 6/1/7 7/1/7 15/1/7 14/1/7
f 4/1/8 5/1/8 13/1/8 12/1/8
f 15/1/9 16/1/9 24/1/9 23/1/9
f 13/1/9 14/1/9 22/1/9 21/1/9
f 11/1/9 12/1/9 20/1/9 19/1/9
f 10/1/9 9/1/9 17/1/9 18/1/9
f 16/1/9 10/1/9 18/1/9 24/1/9
f 14/1/9 15/1/9 23/1/9 22/1/9
f 12/1/9 13/1/9 21/1/9 20/1/9
f 9/1/9 11/1/9 19/1/9 17/1/9
f 17/1/1 19/1/1 27/1/1 25/1/1
f 23/1/2 24/1/2 32/1/2 31/1/2
f 21/1/3 22/1/3 30/1/3 29/1/3
f 19/1/4 20/1/4 28/1/4 27/1/4
f 18/1/5 17/1/5 25/1/5 26/1/5
f 24/1/6 18/1/6 26/1/6 32/1/6
f 22/1/7 23/1/7 31/1/7 30/1/7
f 20/1/8 21/1/8 29/1/8 28/1/8
f 42/1/10 41/1/10 40/1/10 39/1/10
f 43/1/11 44/1/11 37/1/11 38/1/11
f 45/1/12 46/1/12 35/1/12 36/1/12
f 47/1/13 48/1/13 33/1/13 34/1/13
f 41/1/14 43/1/14 38/1/14 40/1/14
f 44/1/15 45/1/15 36/1/15 37/1/15
f 46/1/16 47/1/16 34/1/16 35/1/16
f 48/1/17 42/1/17 39/1/17 33/1/17
f 53/1/18 52/1/18 45/1/18 44/1/18
f 56/1/19 54/1/19 43/1/19 41/1/19
f 50/1/20 49/1/20 48/1/20 47/1/20
f 52/1/21 51/1/21 46/1/21 45/1/21
f 54/1/22 53/1/22 44/1/22 43/1/22
f 55/1/23 56/1/23 41/1/23 42/1/23
f 49/1/24 55/1/24 42/1/24 48/1/24
f 51/1/25 50/1/25 47/1/25 46/1/25
f 57/1/26 59/1/26 54/1/26 56/1/26
f 60/1/27 61/1/27 52/1/27 53/1/27
f 62/1/28 63/1/28 50/1/28 51/1/28
f 64/1/29 58/1/29 55/1/29 49/1/29
f 58/1/30 57/1/30 56/1/30 55/1/30
f 59/1/31 60/1/31 53/1/31 54/1/31
f 61/1/32 62/1/32 51/1/32 52/1/32
f 63/1/33 64/1/33 49/1/33 50/1/33
f 70/1/34 69/1/34 60/1/34 59/1/34
f 71/1/35 72/1/35 57/1/35 58/1/35
f 65/1/36 71/1/36 58/1/36 64/1/36
f 67/1/37 66/1/37 63/1/37 62/1/37
f 69/1/38 68/1/38 61/1/38 60/1/38
f 72/1/39 70/1/39 59/1/39 57/1/39
f 66/1/40 65/1/40 64/1/40 63/1/40
f 68/1/41 67/1/41 62/1/41 61/1/41
f 30/1/42 31/1/42 66/1/42 67/1/42
f 32/1/43 26/1/43 71/1/43 65/1/43
f 26/1/44 25/1/44 72/1/44 71/1/44
f 27/1/45 28/1/45 69/1/45 70/1/45
f 29/1/46 30/1/46 67/1/46 68/1/46
f 31/1/47 32/1/47 65/1/47 66/1/47
f 25/1/48 27/1/48 70/1/48 72/1/48
f 28/1/49 29/1/49 68/1/49 69/1/49
f 34/1/50 33/1/50 73/1/50 74/1/50
f 40/1/51 38/1/51 104/1/51 105/1/51
f 37/1/52 36/1/52 76/1/52 103/1/52
f 35/1/53 34/1/53 74/1/53 75/1/53
f 33/1/54 39/1/54 79/1/54 73/1/54
f 39/1/55 40/1/55 105/1/55 79/1/55
f 38/1/56 37/1/56 103/1/56 104/1/56
f 36/1/54 35/1/54 75/1/54 76/1/54
f 100/1/57 102/1/57 124/1/57 120/1/57
f 103/1/58 76/1/58 84/1/58 107/1/58
f 75/1/59 74/1/59 82/1/59 83/1/59
f 73/1/60 79/1/60 86/1/60 81/1/60
f 79/1/61 105/1/61 87/1/61 86/1/61
f 78/1/62 77/1/62 121/1/62 116/1/62
f 76/1/63 75/1/63 83/1/63 84/1/63
f 74/1/64 73/1/64 81/1/64 82/1/64
f 82/1/65 81/1/65 88/1/65 89/1/65
f 77/1/66 85/1/66 113/1/66 121/1/66
f 107/1/67 84/1/67 91/1/67 109/1/67
f 83/1/68 82/1/68 89/1/68 90/1/68
f 81/1/69 86/1/69 93/1/69 88/1/69
f 86/1/70 87/1/70 94/1/70 93/1/70
f 99/1/71 100/1/71 120/1/71 123/1/71
f 84/1/72 83/1/72 90/1/72 91/1/72
f 93/1/73 94/1/73 112/1/73 101/1/73
f 92/1/74 99/1/74 123/1/74 117/1/74
f 91/1/75 90/1/75 97/1/75 98/1/75
f 89/1/76 88/1/76 95/1/76 96/1/76
f 106/1/77 80/1/77 122/1/77 115/1/77
f 109/1/78 91/1/78 98/1/78 110/1/78
f 90/1/79 89/1/79 96/1/79 97/1/79
f 88/1/80 93/1/80 101/1/80 95/1/80
f 101/1/81 112/1/81 111/1/81 110/1/81 98/1/81 97/1/81 96/1/81 95/1/81
f 77/1/82 78/1/82 104/1/82 103/1/82
f 78/1/82 80/1/82 105/1/82 104/1/82
f 80/1/82 106/1/82 87/1/82 105/1/82
f 85/1/82 77/1/82 103/1/82 107/1/82
f 106/1/82 108/1/82 94/1/82 87/1/82
f 92/1/82 85/1/82 107/1/82 109/1/82
f 100/1/82 99/1/82 110/1/82 111/1/82
f 102/1/82 100/1/82 111/1/82 112/1/82
f 108/1/82 102/1/82 112/1/82 94/1/82
f 99/1/82 92/1/82 109/1/82 110/1/82
f 108/1/83 106/1/83 115/1/83 119/1/83
f 80/1/84 78/1/84 116/1/84 122/1/84
f 102/1/85 108/1/85 119/1/85 124/1/85
f 85/1/86 92/1/86 117/1/86 113/1/86
usemtl street_light
f 122/1/82 116/1/82 114/1/82 115/1/82
f 116/1/82 121/1/82 113/1/82 114/1/82
f 115/1/82 114/1/82 118/1/82 119/1/82
f 114/1/82 113/1/82 117/1/82 118/1/82
f 118/1/82 117/1/82 123/1/82 120/1/82
f 119/1/82 118/1/82 120/1/82 124/1/82
