# Blender 4.0.0
# www.blender.org
mtllib trashBag1.mtl
o trash_bag1
v 9.679686 -0.007914 -0.496806
v 9.480824 -0.007876 -0.432884
v 9.335814 -0.007774 -0.258245
v 9.279104 -0.007670 -0.127668
v 9.334074 -0.007775 -0.013013
v 9.473408 -0.007881 0.192966
v 9.670994 -0.007919 0.325242
v 9.895837 -0.007881 0.287606
v 10.064637 -0.007775 0.082086
v 10.128613 -0.007670 -0.053627
v 10.063276 -0.007774 -0.219973
v 9.896585 -0.007876 -0.432884
v 9.675251 0.145455 -0.580043
v 9.431060 0.145526 -0.501490
v 9.247071 0.145722 -0.286877
v 9.170709 0.145920 -0.124923
v 9.243872 0.145718 0.017757
v 9.422054 0.145518 0.267231
v 9.665462 0.145445 0.398941
v 9.937995 0.145518 0.362332
v 10.158108 0.145718 0.112856
v 10.236703 0.145920 -0.060295
v 10.156618 0.145722 -0.266621
v 9.940661 0.145526 -0.501490
v 9.675226 0.271293 -0.581818
v 9.431035 0.271395 -0.503264
v 9.247046 0.271673 -0.288649
v 9.170684 0.271956 -0.126693
v 9.243854 0.271668 0.015985
v 9.421171 0.271383 0.270892
v 9.664697 0.271278 0.401444
v 9.937112 0.271383 0.365991
v 10.158083 0.271668 0.111084
v 10.236678 0.271956 -0.062064
v 10.156593 0.271673 -0.268393
v 9.940637 0.271395 -0.503264
v 9.680047 0.496421 -0.548888
v 9.447767 0.495759 -0.471875
v 9.285874 0.496603 -0.276979
v 9.222576 0.498112 -0.130562
v 9.283382 0.495692 -0.001746
v 9.439148 0.495577 0.228971
v 9.660823 0.495885 0.362243
v 9.910693 0.496512 0.323970
v 10.131516 0.500895 0.081911
v 10.201722 0.503685 -0.071848
v 10.129659 0.502847 -0.259327
v 9.936211 0.498849 -0.485063
v 9.716674 0.697109 -0.435096
v 9.536554 0.693920 -0.372064
v 9.411449 0.692554 -0.224067
v 9.369415 0.692554 -0.118159
v 9.408497 0.692554 -0.032720
v 9.520767 0.692554 0.128092
v 9.676985 0.692579 0.228149
v 9.846940 0.694230 0.195713
v 10.000665 0.698220 0.035689
v 10.057739 0.699283 -0.067245
v 10.009912 0.699283 -0.199871
v 9.889476 0.699283 -0.388468
v 9.700493 0.891554 -0.301519
v 9.607505 0.890275 -0.269961
v 9.539816 0.889312 -0.191651
v 9.517179 0.889131 -0.136347
v 9.537468 0.889131 -0.090150
v 9.596035 0.889131 -0.000470
v 9.680356 0.889346 0.047974
v 9.773623 0.890374 0.018987
v 9.848545 0.891490 -0.062051
v 9.879744 0.892158 -0.111191
v 9.853446 0.892119 -0.177341
v 9.789398 0.892160 -0.270578
v 9.693227 0.994858 -0.197314
v 9.659960 0.994679 -0.186398
v 9.635945 0.994526 -0.158202
v 9.627533 0.994483 -0.137821
v 9.635423 0.994477 -0.120126
v 9.657540 0.994478 -0.088808
v 9.689383 0.994524 -0.074599
v 9.723473 0.994673 -0.086918
v 9.750376 0.994874 -0.117006
v 9.760354 0.994963 -0.134907
v 9.750547 0.994916 -0.156485
v 9.726178 0.994931 -0.186475
v 9.716781 1.181888 -0.234994
v 9.661125 1.181888 -0.218565
v 9.617528 1.181888 -0.168528
v 9.605425 1.181888 -0.140344
v 9.616634 1.181888 -0.118111
v 9.660185 1.181888 -0.064948
v 9.714331 1.181888 -0.045795
v 9.770885 1.181888 -0.065239
v 9.818952 1.181888 -0.119122
v 9.831227 1.181888 -0.140671
v 9.818490 1.181888 -0.168039
v 9.773188 1.181888 -0.218481
v 9.646277 1.181888 -0.241701
v 9.716750 1.181888 -0.262504
v 9.594910 1.181888 -0.182746
v 9.576318 1.181888 -0.139450
v 9.594376 1.181888 -0.103634
v 9.644437 1.181888 -0.042523
v 9.714208 1.181888 -0.017843
v 9.785990 1.181888 -0.042523
v 9.840505 1.181888 -0.103634
v 9.860908 1.181888 -0.139450
v 9.840756 1.181888 -0.182746
v 9.787807 1.181888 -0.241701
v 9.663056 1.022655 -0.185333
v 9.694177 1.022655 -0.194519
v 9.638679 1.022655 -0.157354
v 9.631911 1.022655 -0.141594
v 9.638179 1.022655 -0.129163
v 9.662531 1.022655 -0.099436
v 9.692807 1.022655 -0.088727
v 9.724430 1.022655 -0.099599
v 9.751307 1.022655 -0.129728
v 9.758170 1.022655 -0.141777
v 9.751048 1.022655 -0.157081
v 9.725717 1.022655 -0.185285
vn -0.0000 -1.0000 -0.0000
vn -0.9045 -0.0062 -0.4265
vn -0.7116 -0.4979 0.4957
vn 0.2523 -0.4552 -0.8539
vn -0.6696 -0.4814 -0.5656
vn 0.7688 -0.5324 0.3543
vn -0.4578 -0.4537 0.7646
vn -0.7740 -0.5266 -0.3516
vn 0.7726 -0.5590 -0.3010
vn 0.1323 -0.4445 0.8860
vn -0.7584 -0.5316 0.3770
vn 0.6565 -0.5045 -0.5607
vn -0.2711 -0.4650 -0.8428
vn 0.6636 -0.4881 0.5669
vn -0.8945 0.1869 -0.4062
vn 0.9322 -0.0049 -0.3618
vn 0.1311 -0.0234 0.9911
vn -0.8898 0.0063 0.4563
vn 0.7361 -0.0094 -0.6768
vn -0.3062 -0.0135 -0.9519
vn 0.7528 -0.0022 0.6583
vn -0.8174 -0.0072 0.5761
vn 0.2838 -0.0135 -0.9588
vn -0.7592 -0.0093 -0.6508
vn 0.9106 0.0060 0.4133
vn -0.4741 -0.0247 0.8801
vn -0.4432 0.5380 0.7170
vn 0.9256 0.1232 -0.3579
vn 0.1371 0.1850 0.9731
vn -0.8780 0.1992 0.4353
vn 0.7440 0.0902 -0.6621
vn -0.3071 0.1492 -0.9399
vn 0.7332 0.1879 0.6536
vn -0.8114 0.1782 0.5567
vn 0.2613 0.1081 -0.9592
vn -0.7546 0.1544 -0.6378
vn 0.8987 0.1546 0.4105
vn -0.4862 0.1702 0.8571
vn -0.4161 0.6115 0.6730
vn -0.7519 0.5778 -0.3174
vn 0.7713 0.5663 -0.2904
vn 0.1346 0.5600 0.8175
vn -0.7581 0.5440 0.3596
vn 0.6896 0.4966 -0.5272
vn -0.2790 0.5201 -0.8073
vn 0.6046 0.5516 0.5746
vn -0.7005 0.5283 0.4797
vn 0.2171 0.4577 -0.8622
vn -0.6387 0.5542 -0.5337
vn 0.7403 0.5576 0.3755
vn 0.5705 0.7388 0.3587
vn -0.7730 0.5538 -0.3095
vn 0.7341 0.6214 -0.2739
vn 0.1602 0.6792 0.7163
vn -0.7395 0.5847 0.3335
vn 0.6675 0.6030 -0.4368
vn -0.2864 0.5239 -0.8022
vn 0.5304 0.6716 0.5173
vn -0.6782 0.5711 0.4625
vn 0.2264 0.5773 -0.7845
vn -0.6530 0.5196 -0.5510
vn 0.6323 0.6781 0.3747
vn -0.7335 -0.2425 -0.6349
vn -0.3302 0.7210 0.6092
vn -0.6663 0.6946 -0.2713
vn 0.6556 0.7050 -0.2705
vn 0.2014 0.7398 0.6420
vn -0.6584 0.6943 0.2905
vn 0.5880 0.6904 -0.4216
vn -0.2411 0.6792 -0.6933
vn 0.5040 0.7243 0.4704
vn -0.6058 0.6854 0.4040
vn 0.2287 0.6982 -0.6784
vn -0.5663 0.6696 -0.4805
vn 0.9087 0.1481 0.3902
vn 0.7924 -0.4146 0.4475
vn -0.3470 -0.2385 0.9070
vn -0.8923 -0.2461 -0.3786
vn 0.8129 -0.4456 -0.3750
vn 0.3135 -0.3150 0.8958
vn -0.8752 -0.2323 0.4244
vn 0.6884 -0.4099 -0.5984
vn -0.2796 -0.2876 -0.9160
vn 0.6913 -0.3771 0.6163
vn -0.7702 -0.2120 0.6015
vn 0.2728 -0.3506 -0.8959
vn -0.0000 1.0000 -0.0000
vn -0.8380 0.3817 0.3900
vn -0.3115 0.2864 -0.9061
vn 0.8828 0.1503 -0.4451
vn -0.6998 0.3396 0.6285
vn 0.2774 0.1995 0.9398
vn -0.7018 0.3398 -0.6261
vn 0.7652 0.1470 -0.6268
vn -0.2703 0.2730 0.9232
vn 0.7460 0.1447 0.6500
vn -0.8062 0.3731 -0.4592
vn 0.3264 0.2047 -0.9228
vt 0.000000 0.000000
s 0
usemtl trash_bag
f 2/1/1 1/1/1 12/1/1 11/1/1 10/1/1 9/1/1 8/1/1 7/1/1 6/1/1 5/1/1 4/1/1 3/1/1
f 15/1/2 16/1/2 28/1/2 27/1/2
f 5/1/3 6/1/3 18/1/3 17/1/3
f 12/1/4 1/1/4 13/1/4 24/1/4
f 2/1/5 3/1/5 15/1/5 14/1/5
f 9/1/6 10/1/6 22/1/6 21/1/6
f 6/1/7 7/1/7 19/1/7 18/1/7
f 3/1/8 4/1/8 16/1/8 15/1/8
f 10/1/9 11/1/9 23/1/9 22/1/9
f 7/1/10 8/1/10 20/1/10 19/1/10
f 4/1/11 5/1/11 17/1/11 16/1/11
f 11/1/12 12/1/12 24/1/12 23/1/12
f 1/1/13 2/1/13 14/1/13 13/1/13
f 8/1/14 9/1/14 21/1/14 20/1/14
f 27/1/15 28/1/15 40/1/15 39/1/15
f 22/1/16 23/1/16 35/1/16 34/1/16
f 19/1/17 20/1/17 32/1/17 31/1/17
f 16/1/18 17/1/18 29/1/18 28/1/18
f 23/1/19 24/1/19 36/1/19 35/1/19
f 13/1/20 14/1/20 26/1/20 25/1/20
f 20/1/21 21/1/21 33/1/21 32/1/21
f 17/1/22 18/1/22 30/1/22 29/1/22
f 24/1/23 13/1/23 25/1/23 36/1/23
f 14/1/24 15/1/24 27/1/24 26/1/24
f 21/1/25 22/1/25 34/1/25 33/1/25
f 18/1/26 19/1/26 31/1/26 30/1/26
f 42/1/27 43/1/27 55/1/27 54/1/27
f 34/1/28 35/1/28 47/1/28 46/1/28
f 31/1/29 32/1/29 44/1/29 43/1/29
f 28/1/30 29/1/30 41/1/30 40/1/30
f 35/1/31 36/1/31 48/1/31 47/1/31
f 25/1/32 26/1/32 38/1/32 37/1/32
f 32/1/33 33/1/33 45/1/33 44/1/33
f 29/1/34 30/1/34 42/1/34 41/1/34
f 36/1/35 25/1/35 37/1/35 48/1/35
f 26/1/36 27/1/36 39/1/36 38/1/36
f 33/1/37 34/1/37 46/1/37 45/1/37
f 30/1/38 31/1/38 43/1/38 42/1/38
f 54/1/39 55/1/39 67/1/39 66/1/39
f 39/1/40 40/1/40 52/1/40 51/1/40
f 46/1/41 47/1/41 59/1/41 58/1/41
f 43/1/42 44/1/42 56/1/42 55/1/42
f 40/1/43 41/1/43 53/1/43 52/1/43
f 47/1/44 48/1/44 60/1/44 59/1/44
f 37/1/45 38/1/45 50/1/45 49/1/45
f 44/1/46 45/1/46 57/1/46 56/1/46
f 41/1/47 42/1/47 54/1/47 53/1/47
f 48/1/48 37/1/48 49/1/48 60/1/48
f 38/1/49 39/1/49 51/1/49 50/1/49
f 45/1/50 46/1/50 58/1/50 57/1/50
f 69/1/51 70/1/51 82/1/51 81/1/51
f 51/1/52 52/1/52 64/1/52 63/1/52
f 58/1/53 59/1/53 71/1/53 70/1/53
f 55/1/54 56/1/54 68/1/54 67/1/54
f 52/1/55 53/1/55 65/1/55 64/1/55
f 59/1/56 60/1/56 72/1/56 71/1/56
f 49/1/57 50/1/57 62/1/57 61/1/57
f 56/1/58 57/1/58 69/1/58 68/1/58
f 53/1/59 54/1/59 66/1/59 65/1/59
f 60/1/60 49/1/60 61/1/60 72/1/60
f 50/1/61 51/1/61 63/1/61 62/1/61
f 57/1/62 58/1/62 70/1/62 69/1/62
f 74/1/63 75/1/63 99/1/63 97/1/63
f 66/1/64 67/1/64 79/1/64 78/1/64
f 63/1/65 64/1/65 76/1/65 75/1/65
f 70/1/66 71/1/66 83/1/66 82/1/66
f 67/1/67 68/1/67 80/1/67 79/1/67
f 64/1/68 65/1/68 77/1/68 76/1/68
f 71/1/69 72/1/69 84/1/69 83/1/69
f 61/1/70 62/1/70 74/1/70 73/1/70
f 68/1/71 69/1/71 81/1/71 80/1/71
f 65/1/72 66/1/72 78/1/72 77/1/72
f 72/1/73 61/1/73 73/1/73 84/1/73
f 62/1/74 63/1/74 75/1/74 74/1/74
f 87/1/75 88/1/75 112/1/75 111/1/75
f 81/1/76 82/1/76 106/1/76 105/1/76
f 78/1/77 79/1/77 103/1/77 102/1/77
f 75/1/78 76/1/78 100/1/78 99/1/78
f 82/1/79 83/1/79 107/1/79 106/1/79
f 79/1/80 80/1/80 104/1/80 103/1/80
f 76/1/81 77/1/81 101/1/81 100/1/81
f 83/1/82 84/1/82 108/1/82 107/1/82
f 73/1/83 74/1/83 97/1/83 98/1/83
f 80/1/84 81/1/84 105/1/84 104/1/84
f 77/1/85 78/1/85 102/1/85 101/1/85
f 84/1/86 73/1/86 98/1/86 108/1/86
f 86/1/87 85/1/87 98/1/87 97/1/87
f 87/1/87 86/1/87 97/1/87 99/1/87
f 88/1/87 87/1/87 99/1/87 100/1/87
f 89/1/87 88/1/87 100/1/87 101/1/87
f 90/1/87 89/1/87 101/1/87 102/1/87
f 91/1/87 90/1/87 102/1/87 103/1/87
f 92/1/87 91/1/87 103/1/87 104/1/87
f 93/1/87 92/1/87 104/1/87 105/1/87
f 94/1/87 93/1/87 105/1/87 106/1/87
f 95/1/87 94/1/87 106/1/87 107/1/87
f 96/1/87 95/1/87 107/1/87 108/1/87
f 85/1/87 96/1/87 108/1/87 98/1/87
f 109/1/87 111/1/87 112/1/87 113/1/87 114/1/87 115/1/87 116/1/87 117/1/87 118/1/87 119/1/87 120/1/87 110/1/87
f 94/1/88 95/1/88 119/1/88 118/1/88
f 91/1/89 92/1/89 116/1/89 115/1/89
f 88/1/90 89/1/90 113/1/90 112/1/90
f 95/1/91 96/1/91 120/1/91 119/1/91
f 85/1/92 86/1/92 109/1/92 110/1/92
f 92/1/93 93/1/93 117/1/93 116/1/93
f 89/1/94 90/1/94 114/1/94 113/1/94
f 96/1/95 85/1/95 110/1/95 120/1/95
f 86/1/96 87/1/96 111/1/96 109/1/96
f 93/1/97 94/1/97 118/1/97 117/1/97
f 90/1/98 91/1/98 115/1/98 114/1/98
