# Blender 4.0.0
# www.blender.org
mtllib trashBag2.mtl
o trash_bag2
v 11.054112 0.002229 -0.414548
v 10.838705 0.002269 -0.345307
v 10.681629 0.002380 -0.156136
v 10.620201 0.002493 -0.014695
v 10.679744 0.002379 0.109499
v 10.830670 0.002265 0.332617
v 11.044698 0.002223 0.475899
v 11.288248 0.002265 0.435132
v 11.471094 0.002379 0.212511
v 11.540393 0.002493 0.065506
v 11.469620 0.002380 -0.114681
v 11.289059 0.002269 -0.345307
v 11.041381 0.161323 -0.504247
v 10.777104 0.161606 -0.419171
v 10.578007 0.161996 -0.186714
v 10.496448 0.163238 -0.011352
v 10.574350 0.161822 0.143279
v 10.767310 0.161563 0.413514
v 11.031015 0.161523 0.556179
v 11.327415 0.162660 0.516455
v 11.565690 0.162741 0.246230
v 11.651132 0.163232 0.058654
v 11.563579 0.162302 -0.164793
v 11.328110 0.160721 -0.419113
v 11.011230 0.270896 -0.504411
v 10.747526 0.271721 -0.419367
v 10.548734 0.272471 -0.186925
v 10.468751 0.275203 -0.011653
v 10.544683 0.271940 0.143091
v 10.737124 0.271960 0.419186
v 11.000906 0.271840 0.560601
v 11.298770 0.274423 0.522036
v 11.536958 0.273694 0.245987
v 11.622841 0.274671 0.058389
v 11.534207 0.272690 -0.164998
v 11.296700 0.269212 -0.419202
v 10.939139 0.446143 -0.464224
v 10.689354 0.447041 -0.380910
v 10.513885 0.447863 -0.169791
v 10.447126 0.451101 -0.011297
v 10.510045 0.445864 0.128409
v 10.678966 0.445911 0.378312
v 10.920007 0.447063 0.522619
v 11.192557 0.449420 0.481051
v 11.430759 0.453286 0.218910
v 11.507383 0.456818 0.052324
v 11.427519 0.454308 -0.150649
v 11.214532 0.446923 -0.394966
v 10.932401 0.622338 -0.338253
v 10.737293 0.618884 -0.269976
v 10.601780 0.617404 -0.109666
v 10.556248 0.617404 0.005055
v 10.598581 0.617404 0.097603
v 10.720193 0.617404 0.271795
v 10.889409 0.617431 0.380178
v 11.073505 0.619219 0.345042
v 11.240020 0.623541 0.171704
v 11.301845 0.624693 0.060205
v 11.250038 0.624693 -0.083456
v 11.119580 0.624693 -0.287746
v 10.914872 0.832961 -0.193562
v 10.814148 0.831576 -0.159378
v 10.740827 0.830533 -0.074552
v 10.716306 0.830337 -0.014647
v 10.738283 0.830337 0.035395
v 10.801723 0.830337 0.132536
v 10.893061 0.830570 0.185011
v 10.994088 0.831683 0.153612
v 11.075244 0.832892 0.065831
v 11.109037 0.833615 0.012602
v 11.080553 0.833574 -0.059052
v 11.011176 0.833618 -0.160046
v 10.907002 0.944861 -0.080687
v 10.870967 0.944667 -0.068861
v 10.844954 0.944501 -0.038320
v 10.835842 0.944455 -0.016243
v 10.844389 0.944448 0.002925
v 10.868346 0.944449 0.036848
v 10.902838 0.944500 0.052240
v 10.939765 0.944661 0.038895
v 10.968906 0.944879 0.006304
v 10.979714 0.944974 -0.013086
v 10.969092 0.944924 -0.036460
v 10.942695 0.944940 -0.068945
v 10.890798 1.175321 -0.155278
v 10.831173 1.189046 -0.140864
v 10.780560 1.193473 -0.090005
v 10.765008 1.192270 -0.060669
v 10.774332 1.185160 -0.036381
v 10.871988 1.181587 0.053739
v 10.922344 1.147612 0.078698
v 10.981132 1.126093 0.062042
v 11.038093 1.117279 0.009173
v 11.054099 1.117003 -0.012400
v 11.045493 1.134246 -0.043570
v 10.947740 1.155769 -0.134580
v 10.818159 1.197389 -0.166315
v 10.893657 1.180011 -0.184566
v 10.758526 1.202605 -0.106391
v 10.734634 1.200758 -0.061327
v 10.749655 1.189304 -0.022199
v 10.853542 1.179592 0.077714
v 10.916987 1.140581 0.107657
v 10.991604 1.113268 0.086517
v 11.056207 1.103271 0.026555
v 11.082810 1.102812 -0.009301
v 11.071097 1.123796 -0.055683
v 10.965389 1.155380 -0.158493
v 10.874321 0.974971 -0.067708
v 10.908031 0.974971 -0.077659
v 10.847916 0.974971 -0.037401
v 10.840585 0.974971 -0.020331
v 10.847374 0.974971 -0.006865
v 10.873752 0.974971 0.025335
v 10.906548 0.974971 0.036936
v 10.940802 0.974971 0.025159
v 10.969914 0.974971 -0.007477
v 10.977349 0.974971 -0.020529
v 10.969634 0.974971 -0.037105
v 10.942196 0.974971 -0.067657
vn -0.0000 -1.0000 -0.0000
vn -0.8854 -0.2277 -0.4053
vn -0.6911 -0.5391 0.4813
vn 0.2516 -0.4595 -0.8518
vn -0.6533 -0.5189 -0.5513
vn 0.7732 -0.5243 0.3567
vn -0.4485 -0.4875 0.7492
vn -0.7538 -0.5637 -0.3378
vn 0.7777 -0.5504 -0.3036
vn 0.1322 -0.4555 0.8803
vn -0.7382 -0.5701 0.3607
vn 0.6601 -0.4955 -0.5646
vn -0.2674 -0.4889 -0.8303
vn 0.6662 -0.4819 0.5691
vn -0.9089 -0.1263 -0.3974
vn 0.9039 0.2342 -0.3579
vn 0.1307 -0.0101 0.9914
vn -0.8739 -0.2248 0.4311
vn 0.7167 0.1981 -0.6686
vn -0.3057 -0.0847 -0.9483
vn 0.7420 0.1757 0.6470
vn -0.7953 -0.2298 0.5609
vn 0.2847 0.0793 -0.9553
vn -0.7447 -0.1998 -0.6368
vn 0.8854 0.2279 0.4052
vn -0.4675 -0.1674 0.8680
vn -0.4437 0.5365 0.7178
vn 0.8044 0.4986 -0.3231
vn 0.1310 0.2841 0.9498
vn -0.8985 -0.1273 0.4200
vn 0.6695 0.4178 -0.6141
vn -0.3098 0.0971 -0.9458
vn 0.6476 0.4986 0.5762
vn -0.8174 -0.1284 0.5616
vn 0.2553 0.2805 -0.9253
vn -0.7606 -0.1001 -0.6414
vn 0.7790 0.5107 0.3639
vn -0.4926 0.0004 0.8703
vn -0.4161 0.6115 0.6730
vn -0.7807 0.5325 -0.3272
vn 0.6159 0.7506 -0.2394
vn 0.1187 0.6597 0.7421
vn -0.7946 0.4807 0.3709
vn 0.5775 0.6790 -0.4533
vn -0.2693 0.5635 -0.7810
vn 0.5033 0.7177 0.4812
vn -0.7264 0.4740 0.4976
vn 0.2008 0.5785 -0.7906
vn -0.6502 0.5310 -0.5434
vn 0.5990 0.7381 0.3106
vn 0.5705 0.7388 0.3587
vn -0.7730 0.5538 -0.3095
vn 0.7341 0.6214 -0.2739
vn 0.1602 0.6792 0.7163
vn -0.7395 0.5847 0.3335
vn 0.6675 0.6030 -0.4368
vn -0.2864 0.5239 -0.8022
vn 0.5304 0.6716 0.5173
vn -0.6782 0.5711 0.4625
vn 0.2264 0.5773 -0.7845
vn -0.6530 0.5196 -0.5510
vn 0.6323 0.6781 0.3747
vn -0.6803 -0.3871 -0.6224
vn -0.3302 0.7210 0.6092
vn -0.6663 0.6946 -0.2713
vn 0.6556 0.7050 -0.2705
vn 0.2014 0.7398 0.6420
vn -0.6584 0.6943 0.2905
vn 0.5880 0.6904 -0.4216
vn -0.2411 0.6792 -0.6933
vn 0.5040 0.7243 0.4704
vn -0.6058 0.6854 0.4040
vn 0.2287 0.6982 -0.6784
vn -0.5663 0.6696 -0.4805
vn 0.8321 0.3624 0.4197
vn 0.7270 -0.4754 0.4954
vn -0.4743 -0.1925 0.8591
vn -0.8216 -0.3910 -0.4149
vn 0.7761 -0.4909 -0.3958
vn 0.2140 -0.3013 0.9292
vn -0.9011 -0.3098 0.3034
vn 0.6123 -0.3885 -0.6886
vn -0.2955 -0.3984 -0.8683
vn 0.6211 -0.4037 0.6718
vn -0.7172 -0.1857 0.6716
vn 0.2245 -0.3920 -0.8922
vn 0.2613 0.9488 0.1774
vn 0.0575 0.9983 0.0088
vn 0.3949 0.8596 0.3242
vn 0.3997 0.8711 0.2854
vn 0.4350 0.8476 0.3039
vn 0.2475 0.9689 0.0057
vn -0.0000 1.0000 -0.0000
vn -0.8090 0.4074 0.4237
vn -0.2247 0.2666 -0.9372
vn 0.9049 0.2595 -0.3373
vn -0.6359 0.3052 0.7089
vn 0.2850 0.3641 0.8867
vn -0.6386 0.3602 -0.6800
vn 0.6986 0.1235 -0.7048
vn -0.2345 0.3384 0.9113
vn 0.6867 0.3592 0.6320
vn -0.7478 0.4256 -0.5096
vn 0.4477 0.1466 -0.8821
vt 0.000000 0.000000
s 0
usemtl trash_bag
f 2/1/1 1/1/1 12/1/1 11/1/1 10/1/1 9/1/1 8/1/1 7/1/1 6/1/1 5/1/1 4/1/1 3/1/1
f 15/1/2 16/1/2 28/1/2 27/1/2
f 5/1/3 6/1/3 18/1/3 17/1/3
f 12/1/4 1/1/4 13/1/4 24/1/4
f 2/1/5 3/1/5 15/1/5 14/1/5
f 9/1/6 10/1/6 22/1/6 21/1/6
f 6/1/7 7/1/7 19/1/7 18/1/7
f 3/1/8 4/1/8 16/1/8 15/1/8
f 10/1/9 11/1/9 23/1/9 22/1/9
f 7/1/10 8/1/10 20/1/10 19/1/10
f 4/1/11 5/1/11 17/1/11 16/1/11
f 11/1/12 12/1/12 24/1/12 23/1/12
f 1/1/13 2/1/13 14/1/13 13/1/13
f 8/1/14 9/1/14 21/1/14 20/1/14
f 27/1/15 28/1/15 40/1/15 39/1/15
f 22/1/16 23/1/16 35/1/16 34/1/16
f 19/1/17 20/1/17 32/1/17 31/1/17
f 16/1/18 17/1/18 29/1/18 28/1/18
f 23/1/19 24/1/19 36/1/19 35/1/19
f 13/1/20 14/1/20 26/1/20 25/1/20
f 20/1/21 21/1/21 33/1/21 32/1/21
f 17/1/22 18/1/22 30/1/22 29/1/22
f 24/1/23 13/1/23 25/1/23 36/1/23
f 14/1/24 15/1/24 27/1/24 26/1/24
f 21/1/25 22/1/25 34/1/25 33/1/25
f 18/1/26 19/1/26 31/1/26 30/1/26
f 42/1/27 43/1/27 55/1/27 54/1/27
f 34/1/28 35/1/28 47/1/28 46/1/28
f 31/1/29 32/1/29 44/1/29 43/1/29
f 28/1/30 29/1/30 41/1/30 40/1/30
f 35/1/31 36/1/31 48/1/31 47/1/31
f 25/1/32 26/1/32 38/1/32 37/1/32
f 32/1/33 33/1/33 45/1/33 44/1/33
f 29/1/34 30/1/34 42/1/34 41/1/34
f 36/1/35 25/1/35 37/1/35 48/1/35
f 26/1/36 27/1/36 39/1/36 38/1/36
f 33/1/37 34/1/37 46/1/37 45/1/37
f 30/1/38 31/1/38 43/1/38 42/1/38
f 54/1/39 55/1/39 67/1/39 66/1/39
f 39/1/40 40/1/40 52/1/40 51/1/40
f 46/1/41 47/1/41 59/1/41 58/1/41
f 43/1/42 44/1/42 56/1/42 55/1/42
f 40/1/43 41/1/43 53/1/43 52/1/43
f 47/1/44 48/1/44 60/1/44 59/1/44
f 37/1/45 38/1/45 50/1/45 49/1/45
f 44/1/46 45/1/46 57/1/46 56/1/46
f 41/1/47 42/1/47 54/1/47 53/1/47
f 48/1/48 37/1/48 49/1/48 60/1/48
f 38/1/49 39/1/49 51/1/49 50/1/49
f 45/1/50 46/1/50 58/1/50 57/1/50
f 69/1/51 70/1/51 82/1/51 81/1/51
f 51/1/52 52/1/52 64/1/52 63/1/52
f 58/1/53 59/1/53 71/1/53 70/1/53
f 55/1/54 56/1/54 68/1/54 67/1/54
f 52/1/55 53/1/55 65/1/55 64/1/55
f 59/1/56 60/1/56 72/1/56 71/1/56
f 49/1/57 50/1/57 62/1/57 61/1/57
f 56/1/58 57/1/58 69/1/58 68/1/58
f 53/1/59 54/1/59 66/1/59 65/1/59
f 60/1/60 49/1/60 61/1/60 72/1/60
f 50/1/61 51/1/61 63/1/61 62/1/61
f 57/1/62 58/1/62 70/1/62 69/1/62
f 74/1/63 75/1/63 99/1/63 97/1/63
f 66/1/64 67/1/64 79/1/64 78/1/64
f 63/1/65 64/1/65 76/1/65 75/1/65
f 70/1/66 71/1/66 83/1/66 82/1/66
f 67/1/67 68/1/67 80/1/67 79/1/67
f 64/1/68 65/1/68 77/1/68 76/1/68
f 71/1/69 72/1/69 84/1/69 83/1/69
f 61/1/70 62/1/70 74/1/70 73/1/70
f 68/1/71 69/1/71 81/1/71 80/1/71
f 65/1/72 66/1/72 78/1/72 77/1/72
f 72/1/73 61/1/73 73/1/73 84/1/73
f 62/1/74 63/1/74 75/1/74 74/1/74
f 87/1/75 88/1/75 112/1/75 111/1/75
f 81/1/76 82/1/76 106/1/76 105/1/76
f 78/1/77 79/1/77 103/1/77 102/1/77
f 75/1/78 76/1/78 100/1/78 99/1/78
f 82/1/79 83/1/79 107/1/79 106/1/79
f 79/1/80 80/1/80 104/1/80 103/1/80
f 76/1/81 77/1/81 101/1/81 100/1/81
f 83/1/82 84/1/82 108/1/82 107/1/82
f 73/1/83 74/1/83 97/1/83 98/1/83
f 80/1/84 81/1/84 105/1/84 104/1/84
f 77/1/85 78/1/85 102/1/85 101/1/85
f 84/1/86 73/1/86 98/1/86 108/1/86
f 86/1/87 85/1/87 98/1/87 97/1/87
f 87/1/87 86/1/87 97/1/87 99/1/87
f 88/1/87 87/1/87 99/1/87 100/1/87
f 89/1/87 88/1/87 100/1/87 101/1/87
f 90/1/88 89/1/88 101/1/88 102/1/88
f 91/1/89 90/1/89 102/1/89 103/1/89
f 92/1/90 91/1/90 103/1/90 104/1/90
f 93/1/90 92/1/90 104/1/90 105/1/90
f 94/1/90 93/1/90 105/1/90 106/1/90
f 95/1/91 94/1/91 106/1/91 107/1/91
f 96/1/92 95/1/92 107/1/92 108/1/92
f 85/1/87 96/1/87 108/1/87 98/1/87
f 109/1/93 111/1/93 112/1/93 113/1/93 114/1/93 115/1/93 116/1/93 117/1/93 118/1/93 119/1/93 120/1/93 110/1/93
f 94/1/94 95/1/94 119/1/94 118/1/94
f 91/1/95 92/1/95 116/1/95 115/1/95
f 88/1/96 89/1/96 113/1/96 112/1/96
f 95/1/97 96/1/97 120/1/97 119/1/97
f 85/1/98 86/1/98 109/1/98 110/1/98
f 92/1/99 93/1/99 117/1/99 116/1/99
f 89/1/100 90/1/100 114/1/100 113/1/100
f 96/1/101 85/1/101 110/1/101 120/1/101
f 86/1/102 87/1/102 111/1/102 109/1/102
f 93/1/103 94/1/103 118/1/103 117/1/103
f 90/1/104 91/1/104 115/1/104 114/1/104
